#N canvas 751 90 450 300 10;
#X declare -lib mrpeach;
#X obj 43 6 import mrpeach;
#X floatatom 119 106 5 0 0 0 - - -;
#X msg 51 32 connect localhost 9000;
#X msg 129 54 disconnect;
#X obj 56 178 udpsend;
#X obj 119 152 packOSC;
#X msg 119 128 send /test \$1;
#X text 162 72;
#X connect 1 0 6 0;
#X connect 2 0 4 0;
#X connect 3 0 4 0;
#X connect 5 0 4 0;
#X connect 6 0 5 0;
